<?xml version="1.0" encoding="iso-8859-1"?>
<!-- Generator: Adobe Illustrator 19.0.0, SVG Export Plug-In . SVG Version: 6.00 Build 0)  -->
<svg version="1.1" id="Layer_1" xmlns="http://www.w3.org/2000/svg" xmlns:xlink="http://www.w3.org/1999/xlink" x="0px" y="0px"
	 viewBox="0 0 512 512" style="enable-background:new 0 0 512 512;" xml:space="preserve">
<g>
	<g>
		<path d="M403.202,133.841c-20.929-59.751-77.431-100.45-141.637-100.45c-18.836,0-36.998,3.526-53.805,9.985
			C185.691,15.984,152.663,0,116.87,0C52.428,0,0,52.428,0,116.87c0,27.326,9.727,53.874,27.048,74.742
			c-10.113,17.288-15.918,37.389-15.918,58.823c0,64.442,52.428,116.87,116.87,116.87h267.13c64.442,0,116.87-52.428,116.87-116.87
			C512,188.706,463.892,138.002,403.202,133.841z M116.87,33.391c23.255,0,44.875,9.454,60.464,25.892
			c-26.108,17.72-46.55,43.566-57.405,74.558c-27.488,1.884-52.395,13.318-71.42,30.998c-9.831-13.919-15.117-30.472-15.117-47.97
			C33.391,70.84,70.84,33.391,116.87,33.391z M395.13,333.913H128c-46.03,0-83.478-37.448-83.478-83.478S81.97,166.957,128,166.957
			c21.764,0,42.942,8.365,59.028,24.45c6.518,6.519,17.091,6.521,23.611,0c6.52-6.519,6.52-17.09,0-23.611
			c-15.634-15.634-34.919-26.286-55.932-31.175c18.365-41.903,59.964-69.838,106.858-69.838c46.894,0,88.492,27.935,106.858,69.838
			c-21.012,4.888-40.298,15.54-55.932,31.175c-6.519,6.52-6.519,17.091,0,23.611c6.522,6.521,17.091,6.52,23.611,0
			c17.047-17.048,35.276-22.874,57.463-24.367c39.825-2.745,85.043,32.233,85.043,83.395
			C478.609,296.465,441.16,333.913,395.13,333.913z"/>
	</g>
</g>
<g>
	<g>
		<circle cx="384" cy="417.391" r="16.696"/>
	</g>
</g>
<g>
	<g>
		<circle cx="205.913" cy="417.391" r="16.696"/>
	</g>
</g>
<g>
	<g>
		<path d="M294.957,411.826c-27.618,0-50.087,22.469-50.087,50.087S267.339,512,294.957,512c27.618,0,50.087-22.469,50.087-50.087
			S322.574,411.826,294.957,411.826z M294.957,478.609c-9.206,0-16.696-7.49-16.696-16.696s7.49-16.696,16.696-16.696
			c9.206,0,16.696,7.49,16.696,16.696S304.162,478.609,294.957,478.609z"/>
	</g>
</g>
<g>
	<g>
		<path d="M116.87,400.696c-27.618,0-50.087,22.469-50.087,50.087s22.469,50.087,50.087,50.087
			c27.618,0,50.087-22.469,50.087-50.087S144.488,400.696,116.87,400.696z M116.87,467.478c-9.206,0-16.696-7.49-16.696-16.696
			s7.49-16.696,16.696-16.696s16.696,7.49,16.696,16.696S126.076,467.478,116.87,467.478z"/>
	</g>
</g>
<g>
	<g>
		<circle cx="27.826" cy="495.304" r="16.696"/>
	</g>
</g>
<g>
</g>
<g>
</g>
<g>
</g>
<g>
</g>
<g>
</g>
<g>
</g>
<g>
</g>
<g>
</g>
<g>
</g>
<g>
</g>
<g>
</g>
<g>
</g>
<g>
</g>
<g>
</g>
<g>
</g>
</svg>
